<svg width="50" height="50" viewBox="0 0 50 50" fill="none" xmlns="http://www.w3.org/2000/svg">
<path d="M19.55 22.3303H31.25C31.7672 22.3303 32.2632 22.5357 32.6289 22.9014C32.9946 23.2671 33.2 23.7631 33.2 24.2803V31.1021C33.1994 32.1361 32.7883 33.1275 32.057 33.8585C31.3256 34.5894 30.334 35 29.3 35H21.5C20.466 35 19.4744 34.5894 18.743 33.8585C18.0117 33.1275 17.6006 32.1361 17.6 31.1021V24.2803C17.6 23.7631 17.8054 23.2671 18.1711 22.9014C18.5368 22.5357 19.0328 22.3303 19.55 22.3303Z" stroke="black" stroke-width="2" stroke-linecap="round" stroke-linejoin="round"/>
<path d="M20.525 22.3303V20.3813C20.5235 19.7404 20.6485 19.1055 20.8929 18.513C21.1372 17.9205 21.4962 17.382 21.9491 16.9285C22.402 16.475 22.9399 16.1154 23.5321 15.8703C24.1243 15.6251 24.7591 15.4993 25.4 15.5C26.0406 15.5003 26.675 15.6268 27.2667 15.8723C27.8585 16.1177 28.3961 16.4774 28.8488 16.9307C29.3015 17.384 29.6604 17.9221 29.9052 18.5141C30.1499 19.1062 30.2756 19.7407 30.275 20.3813V22.3313" stroke="black" stroke-width="2" stroke-linecap="round" stroke-linejoin="round"/>
</svg>
