<svg width="100" height="100" viewBox="0 0 100 100" fill="none" xmlns="http://www.w3.org/2000/svg">
<circle cx="50" cy="50" r="50" fill="black"/>
<path d="M60.8334 44.4166C62.6283 44.4166 64.0834 42.9616 64.0834 41.1666C64.0834 39.3717 62.6283 37.9166 60.8334 37.9166C59.0384 37.9166 57.5834 39.3717 57.5834 41.1666C57.5834 42.9616 59.0384 44.4166 60.8334 44.4166Z" fill="white"/>
<path d="M58.6667 32.5C64.6467 32.5 69.5 37.3533 69.5 43.3333V60.6667C69.5 66.6467 64.6467 71.5 58.6667 71.5H41.3333C35.3533 71.5 30.5 66.6467 30.5 60.6667V43.3333C30.5 37.3533 35.3533 32.5 41.3333 32.5H50H58.6667Z" stroke="white" stroke-width="3" stroke-linecap="round" stroke-linejoin="round"/>
<path d="M50 43.3334C54.7884 43.3334 58.6667 47.2117 58.6667 52C58.6667 56.7884 54.7884 60.6667 50 60.6667C45.2117 60.6667 41.3334 56.7884 41.3334 52C41.3334 47.2117 45.2117 43.3334 50 43.3334Z" stroke="white" stroke-width="3" stroke-linecap="round" stroke-linejoin="round"/>
</svg>
