<svg width="100" height="100" viewBox="0 0 100 100" fill="none" xmlns="http://www.w3.org/2000/svg">
<circle cx="50" cy="50" r="50" fill="black"/>
<path d="M70.0881 53.2948V67.4378H61.8886V54.2416C61.8886 50.9258 60.7022 48.6641 57.7352 48.6641C55.4697 48.6641 54.1204 50.1898 53.5281 51.6637C53.3115 52.1908 53.256 52.9248 53.256 53.6628V67.4378H45.0526C45.0526 67.4378 45.1638 45.0895 45.0526 42.7723H53.256V46.2683L53.2023 46.3488H53.256V46.2683C54.3446 44.5912 56.29 42.1934 60.6466 42.1934C66.042 42.1934 70.0881 45.7201 70.0881 53.2948ZM36.4736 30.8832C33.6695 30.8832 31.8334 32.7232 31.8334 35.1439C31.8334 37.511 33.6159 39.4066 36.3663 39.4066H36.42C39.2815 39.4066 41.0583 37.511 41.0583 35.1439C41.0085 32.7232 39.2815 30.8832 36.4736 30.8832ZM32.3202 67.4378H40.5197V42.7723H32.3202V67.4378Z" fill="white"/>
</svg>
